<svg version="1.1" id="Layer_1" xmlns="http://www.w3.org/2000/svg" xmlns:xlink="http://www.w3.org/1999/xlink" x="0px" y="0px"
	 width="100%" viewBox="0 0 327 390" enable-background="new 0 0 327 390" xml:space="preserve">
<path fill="#FEFEFE" opacity="1.000000" stroke="none"
	d="
M171.000000,391.000000
	C114.000008,391.000000 57.500019,391.000000 1.000023,391.000000
	C1.000015,261.000031 1.000015,131.000061 1.000008,1.000075
	C109.999947,1.000050 218.999893,1.000050 327.999878,1.000025
	C327.999939,130.999924 327.999939,260.999847 327.999969,390.999878
	C275.833344,391.000000 223.666672,391.000000 171.000000,391.000000
M162.402847,144.981033
	C162.312057,145.325439 162.221252,145.669846 161.964279,146.807144
	C162.047806,147.875214 162.131332,148.943268 162.004898,150.643173
	C162.096603,151.511520 162.188293,152.379868 162.075256,154.056274
	C162.022720,166.221939 162.032730,178.388321 161.889786,190.552933
	C161.823868,196.162201 159.338013,198.771973 154.632874,198.647369
	C149.578537,198.513550 147.524063,196.249710 147.474411,190.585342
	C147.415970,183.919418 147.508133,177.251617 147.396042,170.586960
	C147.338043,167.138031 145.768982,164.831131 141.940018,164.877686
	C138.081070,164.924591 136.726776,167.220352 136.753143,170.745590
	C136.807938,178.077515 136.589966,185.424057 137.010132,192.734344
	C137.173599,195.578568 138.142944,198.794662 139.812027,201.052856
	C144.170547,206.949738 153.549759,208.947449 161.307266,206.273514
	C168.777588,203.698563 172.503296,198.481842 172.660736,189.857483
	C172.806686,181.862457 172.691879,173.862686 172.691879,165.867844
	C171.213287,165.782410 169.786835,165.699982 167.567154,165.571732
	C170.901016,159.952362 173.913925,154.873993 177.322037,149.129471
	C180.390747,154.501221 183.065247,159.182922 185.905884,164.155441
	C179.794418,165.182648 182.174072,169.054413 182.351288,172.287964
	C191.534866,172.791092 197.183411,167.951080 197.703491,159.457047
	C198.230606,150.848022 193.185669,145.115936 184.445114,144.771072
	C179.635590,144.581299 174.806992,144.874420 169.205246,144.742096
	C168.135498,144.807938 167.065735,144.873764 165.347717,144.720612
	C164.902481,144.789520 164.457230,144.858414 163.495621,144.764709
	C163.328506,144.832825 163.161407,144.900925 162.402847,144.981033
M253.269638,193.089966
	C239.062332,187.660797 224.457092,192.317078 216.038727,204.959549
	C208.804871,215.823090 210.179596,232.218887 219.310867,241.560394
	C228.613541,251.077209 239.761978,253.658295 252.280914,249.279205
	C263.715759,245.279343 271.594543,234.493591 271.800690,222.190613
	C272.022369,208.956741 265.870209,199.309738 253.269638,193.089966
M83.018120,168.485733
	C83.017319,160.821045 82.535309,153.116913 83.159058,145.503403
	C83.716965,138.693665 82.051582,134.262772 75.331467,131.491211
	C69.992378,129.289230 65.200180,125.766922 60.150177,122.856857
	C53.863346,119.234085 47.561092,115.638077 39.998653,111.304573
	C41.433537,145.834824 37.941689,179.166901 43.281532,212.521606
	C49.171570,192.668106 62.836758,182.871979 83.020058,180.457016
	C83.020058,176.730103 83.020058,173.103745 83.018120,168.485733
M216.144424,115.346588
	C221.052368,118.164391 226.062897,120.820824 230.833862,123.854065
	C234.284729,126.048027 237.218063,126.365265 240.897537,124.096214
	C249.534531,118.769943 258.438263,113.877304 267.210510,108.768761
	C270.819550,106.667030 274.368103,104.461433 278.637909,101.884377
	C272.919281,98.536697 268.217468,95.722374 263.458160,93.008987
	C243.366577,81.554436 223.307800,70.040413 203.111511,58.773098
	C199.260056,56.624393 194.840805,55.493404 190.394547,53.781616
	C190.394547,55.003971 190.323334,55.232365 190.404633,55.321224
	C202.892746,68.970734 205.799744,84.249016 198.594147,101.458420
	C198.123123,102.583405 199.300583,105.279373 200.490158,106.064674
	C205.342926,109.268204 210.498795,112.012619 216.144424,115.346588
M243.263107,261.009888
	C227.413971,261.426666 215.419388,254.526703 206.604980,241.190582
	C194.129181,248.390808 181.849731,255.378998 169.729904,262.633850
	C168.590103,263.316132 167.949493,265.672882 167.933792,267.260681
	C167.797119,281.089142 167.847717,294.919556 167.873367,308.749329
	C167.875305,309.801208 168.112595,310.852631 168.258896,312.055786
	C169.186966,311.801453 169.699722,311.766510 170.099976,311.536133
	C192.477264,298.654999 214.923218,285.889984 237.163269,272.775757
	C243.302994,269.155365 248.826569,264.490021 254.632843,260.304138
	C254.411453,260.016479 254.190079,259.728821 253.968689,259.441162
	C250.698914,259.944305 247.429153,260.447479 243.263107,261.009888
M132.259140,87.928719
	C136.424255,105.549553 147.204453,114.446983 164.037201,114.156731
	C179.460632,113.890778 192.959732,99.947235 192.961533,84.280083
	C192.963318,68.712379 179.440826,54.463646 164.262100,54.039299
	C144.923203,53.498650 132.012589,66.771774 132.259140,87.928719
M64.569107,245.010117
	C82.582130,256.954803 103.698784,250.954025 111.156410,231.771301
	C115.781837,219.873627 111.962921,205.770950 101.877335,197.505310
	C92.130104,189.516953 77.487816,188.591492 66.873596,195.461838
	C49.124454,206.950485 48.134083,231.490387 64.569107,245.010117
M156.904922,290.499878
	C156.906677,282.842285 157.107681,275.175903 156.770340,267.533264
	C156.685806,265.618134 155.350494,262.989563 153.774261,262.032745
	C142.966431,255.472229 131.912201,249.319229 121.009010,242.912964
	C118.563019,241.475784 117.438057,242.206696 115.731117,244.243011
	C112.766090,247.780258 109.560501,251.307297 105.840721,253.983856
	C95.530151,261.402863 83.809135,262.309052 71.317123,260.671051
	C97.687820,281.072632 127.740700,295.241699 156.904938,313.021667
	C156.904938,304.789490 156.904938,298.144653 156.904922,290.499878
M119.587181,109.076347
	C120.300583,108.648888 120.966835,108.088989 121.735046,107.815468
	C126.732857,106.035995 127.031311,103.319984 125.122063,98.420059
	C119.630104,84.325363 121.740646,71.020966 131.212189,59.037090
	C132.352600,57.594181 133.373093,56.056503 134.449173,54.562748
	C103.062370,66.538834 75.964272,85.752792 45.729061,101.899643
	C60.276798,110.248482 73.334778,117.892242 86.602806,125.152107
	C88.125504,125.985268 91.127075,125.238159 92.920898,124.263229
	C101.691856,119.496216 110.285782,114.403481 119.587181,109.076347
M284.300629,178.500137
	C284.300629,156.486801 284.300629,134.473450 284.300629,111.475113
	C269.935883,119.771439 256.651886,127.352448 243.518417,135.185898
	C242.351761,135.881744 241.644119,138.209732 241.610367,139.798553
	C241.429825,148.292953 241.532028,156.793365 241.534805,165.291687
	C241.536484,170.397125 241.535095,175.502563 241.535095,180.689285
	C261.604828,182.024719 274.178925,192.529068 281.405090,210.514587
	C284.806854,200.043777 284.137177,189.734344 284.300629,178.500137
z"/>
<path fill="#058282" opacity="1.000000" stroke="none"
	d="
M253.627823,193.237030
	C265.870209,199.309738 272.022369,208.956741 271.800690,222.190613
	C271.594543,234.493591 263.715759,245.279343 252.280914,249.279205
	C239.761978,253.658295 228.613541,251.077209 219.310867,241.560394
	C210.179596,232.218887 208.804871,215.823090 216.038727,204.959549
	C224.457092,192.317078 239.062332,187.660797 253.627823,193.237030
z"/>
<path fill="#44E0D1" opacity="1.000000" stroke="none"
	d="
M83.019089,168.981567
	C83.020058,173.103745 83.020058,176.730103 83.020058,180.457016
	C62.836758,182.871979 49.171570,192.668106 43.281532,212.521606
	C37.941689,179.166901 41.433537,145.834824 39.998653,111.304573
	C47.561092,115.638077 53.863346,119.234085 60.150177,122.856857
	C65.200180,125.766922 69.992378,129.289230 75.331467,131.491211
	C82.051582,134.262772 83.716965,138.693665 83.159058,145.503403
	C82.535309,153.116913 83.017319,160.821045 83.019089,168.981567
z"/>
<path fill="#92EE92" opacity="1.000000" stroke="none"
	d="
M215.843704,115.136383
	C210.498795,112.012619 205.342926,109.268204 200.490158,106.064674
	C199.300583,105.279373 198.123123,102.583405 198.594147,101.458420
	C205.799744,84.249016 202.892746,68.970734 190.404633,55.321224
	C190.323334,55.232365 190.394547,55.003971 190.394547,53.781616
	C194.840805,55.493404 199.260056,56.624393 203.111511,58.773098
	C223.307800,70.040413 243.366577,81.554436 263.458160,93.008987
	C268.217468,95.722374 272.919281,98.536697 278.637909,101.884377
	C274.368103,104.461433 270.819550,106.667030 267.210510,108.768761
	C258.438263,113.877304 249.534531,118.769943 240.897537,124.096214
	C237.218063,126.365265 234.284729,126.048027 230.833862,123.854065
	C226.062897,120.820824 221.052368,118.164391 215.843704,115.136383
z"/>
<path fill="#058283" opacity="1.000000" stroke="none"
	d="
M243.711243,260.980255
	C247.429153,260.447479 250.698914,259.944305 253.968689,259.441162
	C254.190079,259.728821 254.411453,260.016479 254.632843,260.304138
	C248.826569,264.490021 243.302994,269.155365 237.163269,272.775757
	C214.923218,285.889984 192.477264,298.654999 170.099976,311.536133
	C169.699722,311.766510 169.186966,311.801453 168.258896,312.055786
	C168.112595,310.852631 167.875305,309.801208 167.873367,308.749329
	C167.847717,294.919556 167.797119,281.089142 167.933792,267.260681
	C167.949493,265.672882 168.590103,263.316132 169.729904,262.633850
	C181.849731,255.378998 194.129181,248.390808 206.604980,241.190582
	C215.419388,254.526703 227.413971,261.426666 243.711243,260.980255
z"/>
<path fill="#92EE92" opacity="1.000000" stroke="none"
	d="
M132.197311,87.498344
	C132.012589,66.771774 144.923203,53.498650 164.262100,54.039299
	C179.440826,54.463646 192.963318,68.712379 192.961533,84.280083
	C192.959732,99.947235 179.460632,113.890778 164.037201,114.156731
	C147.204453,114.446983 136.424255,105.549553 132.197311,87.498344
z"/>
<path fill="#42E0D0" opacity="1.000000" stroke="none"
	d="
M64.289856,244.783096
	C48.134083,231.490387 49.124454,206.950485 66.873596,195.461838
	C77.487816,188.591492 92.130104,189.516953 101.877335,197.505310
	C111.962921,205.770950 115.781837,219.873627 111.156410,231.771301
	C103.698784,250.954025 82.582130,256.954803 64.289856,244.783096
z"/>
<path fill="#43E0D0" opacity="1.000000" stroke="none"
	d="
M156.904938,290.999817
	C156.904938,298.144653 156.904938,304.789490 156.904938,313.021667
	C127.740700,295.241699 97.687820,281.072632 71.317123,260.671051
	C83.809135,262.309052 95.530151,261.402863 105.840721,253.983856
	C109.560501,251.307297 112.766090,247.780258 115.731117,244.243011
	C117.438057,242.206696 118.563019,241.475784 121.009010,242.912964
	C131.912201,249.319229 142.966431,255.472229 153.774261,262.032745
	C155.350494,262.989563 156.685806,265.618134 156.770340,267.533264
	C157.107681,275.175903 156.906677,282.842285 156.904938,290.999817
z"/>
<path fill="#92EE92" opacity="1.000000" stroke="none"
	d="
M119.264740,109.251129
	C110.285782,114.403481 101.691856,119.496216 92.920898,124.263229
	C91.127075,125.238159 88.125504,125.985268 86.602806,125.152107
	C73.334778,117.892242 60.276798,110.248482 45.729061,101.899643
	C75.964272,85.752792 103.062370,66.538834 134.449173,54.562748
	C133.373093,56.056503 132.352600,57.594181 131.212189,59.037090
	C121.740646,71.020966 119.630104,84.325363 125.122063,98.420059
	C127.031311,103.319984 126.732857,106.035995 121.735046,107.815468
	C120.966835,108.088989 120.300583,108.648888 119.264740,109.251129
z"/>
<path fill="#048182" opacity="1.000000" stroke="none"
	d="
M284.299988,179.000153
	C284.137177,189.734344 284.806854,200.043777 281.405090,210.514587
	C274.178925,192.529068 261.604828,182.024719 241.535095,180.689285
	C241.535095,175.502563 241.536484,170.397125 241.534805,165.291687
	C241.532028,156.793365 241.429825,148.292953 241.610367,139.798553
	C241.644119,138.209732 242.351761,135.881744 243.518417,135.185898
	C256.651886,127.352448 269.935883,119.771439 284.300629,111.475113
	C284.300629,134.473450 284.300629,156.486801 284.299988,179.000153
z"/>
<path fill="#283F6F" opacity="1.000000" stroke="none"
	d="
M162.214859,150.011337
	C162.131332,148.943268 162.047806,147.875214 162.271515,146.406738
	C162.578766,146.006348 163.028381,145.984207 163.250702,145.869919
	C163.652679,145.479538 163.832336,145.203430 164.011993,144.927322
	C164.457230,144.858414 164.902481,144.789520 165.677475,145.192719
	C166.446442,146.388062 166.885666,147.111282 167.324890,147.834503
	C168.212265,146.872955 169.099640,145.911392 169.987000,144.949829
	C174.806992,144.874420 179.635590,144.581299 184.445114,144.771072
	C193.185669,145.115936 198.230606,150.848022 197.703491,159.457047
	C197.183411,167.951080 191.534866,172.791092 182.351288,172.287964
	C182.174072,169.054413 179.794418,165.182648 185.905884,164.155441
	C183.065247,159.182922 180.390747,154.501221 177.322037,149.129471
	C173.913925,154.873993 170.901016,159.952362 167.567154,165.571732
	C169.786835,165.699982 171.213287,165.782410 172.691879,165.867844
	C172.691879,173.862686 172.806686,181.862457 172.660736,189.857483
	C172.503296,198.481842 168.777588,203.698563 161.307266,206.273514
	C153.549759,208.947449 144.170547,206.949738 139.812027,201.052856
	C138.142944,198.794662 137.173599,195.578568 137.010132,192.734344
	C136.589966,185.424057 136.807938,178.077515 136.753143,170.745590
	C136.726776,167.220352 138.081070,164.924591 141.940018,164.877686
	C145.768982,164.831131 147.338043,167.138031 147.396042,170.586960
	C147.508133,177.251617 147.415970,183.919418 147.474411,190.585342
	C147.524063,196.249710 149.578537,198.513550 154.632874,198.647369
	C159.338013,198.771973 161.823868,196.162201 161.889786,190.552933
	C162.032730,178.388321 162.022720,166.221939 162.513565,153.509247
	C162.706207,151.978577 162.460526,150.994965 162.214859,150.011337
z"/>
<path fill="#1F3769" opacity="1.000000" stroke="none"
	d="
M169.596130,144.845978
	C169.099640,145.911392 168.212265,146.872955 167.324890,147.834503
	C166.885666,147.111282 166.446442,146.388062 166.001617,145.302216
	C167.065735,144.873764 168.135498,144.807938 169.596130,144.845978
z"/>
<path fill="#1F3769" opacity="1.000000" stroke="none"
	d="
M162.109879,150.327255
	C162.460526,150.994965 162.706207,151.978577 162.615936,153.105209
	C162.188293,152.379868 162.096603,151.511520 162.109879,150.327255
z"/>
<path fill="#3A4E7A" opacity="1.000000" stroke="none"
	d="
M163.028381,145.984207
	C163.028381,145.984207 162.578766,146.006348 162.354614,146.010300
	C162.221252,145.669846 162.312057,145.325439 162.705872,145.228851
	C163.015396,145.645874 163.021896,145.815048 163.028381,145.984207
z"/>
<path fill="#1F3769" opacity="1.000000" stroke="none"
	d="
M163.250702,145.869919
	C163.021896,145.815048 163.015396,145.645874 163.001617,145.222839
	C163.161407,144.900925 163.328506,144.832825 163.753815,144.846008
	C163.832336,145.203430 163.652679,145.479538 163.250702,145.869919
z"/>
</svg>